# xmcd
# 
# Track frame offsets:
#     183
#     20005
#     39218
#     85745
#     121610
#     137373
#     157983
# 
# Disc length: 2537
# 
# Revision: 8
# Processed by: cddbd v1.5.2PL0 Copyright (c) Steve Scherf et al.
# Submitted via: BonkEnc v1.0.8
# 
DISCID=4209e707
DTITLE=Deep Purple - In Rock
DYEAR=1970
DGENRE=Hard Rock
TTITLE0=Speed King
TTITLE1=Bloodsucker
TTITLE2=Child In Time
TTITLE3=Flight of the Rat
TTITLE4=Into the Fire
TTITLE5=Living Wreck
TTITLE6=Hard Lovin' Man
EXTD=YEAR: 1970
EXTT0=
EXTT1=
EXTT2=
EXTT3=
EXTT4=
EXTT5=
EXTT6=
PLAYORDER=
